# xmcd CD database file
#
# Track frame offsets:
#	150
#	14137
#	31475
#	43020
#	63412
#	79337
#	98970
#	120605
#	136697
#	158667
#	176105
#	188800
#	202647
#	217867
#	232852
#	244087
#	263697
#	277127
#	297637
#	321909
#
# Disc length: 4533 seconds
#
# Revision: 0
# Processed by: cddbd v1.5.2PL0 Copyright (c) Steve Scherf et al.
# Submitted via: jetAudio 7
#
DISCID=2111b314
DTITLE=未知演出者 - 未知專輯
DYEAR=1900
DGENRE=未知内容類型
TTITLE0=曲目 1
TTITLE1=曲目 2
TTITLE2=曲目 3
TTITLE3=曲目 4
TTITLE4=曲目 5
TTITLE5=曲目 6
TTITLE6=曲目 7
TTITLE7=曲目 8
TTITLE8=曲目 9
TTITLE9=曲目 10
TTITLE10=曲目 11
TTITLE11=曲目 12
TTITLE12=曲目 13
TTITLE13=曲目 14
TTITLE14=曲目 15
TTITLE15=曲目 16
TTITLE16=曲目 17
TTITLE17=曲目 18
TTITLE18=曲目 19
TTITLE19=曲目 20
EXTD=
EXTT0=
EXTT1=
EXTT2=
EXTT3=
EXTT4=
EXTT5=
EXTT6=
EXTT7=
EXTT8=
EXTT9=
EXTT10=
EXTT11=
EXTT12=
EXTT13=
EXTT14=
EXTT15=
EXTT16=
EXTT17=
EXTT18=
EXTT19=
PLAYORDER=
